<svg width="90" height="27" viewBox="0 0 90 27" fill="none" xmlns="http://www.w3.org/2000/svg">
<path fill-rule="evenodd" clip-rule="evenodd" d="M18.1758 25.1949C16.8005 25.9202 15.337 26.692 13.346 26.692C5.97521 26.692 0 20.7168 0 13.346C0 5.97521 5.97521 0 13.346 0C20.7168 0 26.692 5.97521 26.692 13.346V26.0039C22.6348 22.8435 20.5351 23.9508 18.1758 25.1949ZM19.1635 13.346C19.1635 16.5589 16.5589 19.1635 13.346 19.1635C10.1331 19.1635 7.52852 16.5589 7.52852 13.346C7.52852 10.1331 10.1331 7.52852 13.346 7.52852C16.5589 7.52852 19.1635 10.1331 19.1635 13.346Z" fill="#222222"/>
<path fill-rule="evenodd" clip-rule="evenodd" d="M43.3745 17.8529H42.584C41.9064 17.8529 41.2226 17.8843 40.5324 17.9471C39.8423 18.0098 39.2275 18.129 38.688 18.3047C38.1484 18.4803 37.703 18.7375 37.3517 19.0763C37.0003 19.4151 36.8247 19.8605 36.8247 20.4126C36.8247 20.764 36.9062 21.0651 37.0693 21.3161C37.2325 21.567 37.4395 21.7678 37.6904 21.9183C37.9414 22.0689 38.23 22.1756 38.5562 22.2383C38.8825 22.301 39.1961 22.3324 39.4973 22.3324C40.752 22.3324 41.7119 21.9874 42.3769 21.2972C43.042 20.6071 43.3745 19.6723 43.3745 18.4929V17.8529ZM32.044 9.83507C33.1482 8.78108 34.4343 7.99059 35.9024 7.46359C37.3705 6.93659 38.8699 6.6731 40.4007 6.6731C41.9817 6.6731 43.318 6.86758 44.4096 7.25656C45.5013 7.64553 46.3859 8.24781 47.0634 9.0634C47.741 9.87899 48.2366 10.9079 48.5503 12.1501C48.864 13.3923 49.0209 14.8666 49.0209 16.5731V26.0214H43.3745V24.0263H43.2615C42.7847 24.8043 42.0633 25.4066 41.0971 25.8332C40.1309 26.2598 39.0832 26.4731 37.9539 26.4731C37.2011 26.4731 36.4231 26.3727 35.6201 26.172C34.817 25.9712 34.083 25.645 33.418 25.1932C32.753 24.7415 32.2072 24.1393 31.7805 23.3864C31.3539 22.6335 31.1406 21.705 31.1406 20.6009C31.1406 19.2457 31.5108 18.1541 32.2511 17.3259C32.9914 16.4978 33.945 15.8579 35.1119 15.4062C36.2788 14.9545 37.5775 14.6533 39.0079 14.5028C40.4384 14.3522 41.8311 14.2769 43.1863 14.2769V13.9758C43.1863 13.0472 42.86 12.3634 42.2075 11.9242C41.5551 11.4851 40.752 11.2655 39.7984 11.2655C38.9201 11.2655 38.0731 11.4537 37.2575 11.8301C36.442 12.2066 35.7456 12.6583 35.1684 13.1853L32.044 9.83507ZM64.6425 12.8088C64.1406 12.332 63.5509 11.9305 62.8733 11.6043C62.1958 11.278 61.4806 11.1149 60.7277 11.1149C60.1505 11.1149 59.6172 11.2278 59.1279 11.4537C58.6385 11.6796 58.3939 12.0685 58.3939 12.6206C58.3939 13.1476 58.6636 13.524 59.2032 13.7499C59.7427 13.9758 60.6148 14.2267 61.8193 14.5028C62.522 14.6533 63.2309 14.8666 63.9461 15.1427C64.6614 15.4187 65.3075 15.7826 65.8847 16.2343C66.4619 16.686 66.9262 17.2381 67.2775 17.8906C67.6288 18.5431 67.8045 19.321 67.8045 20.2244C67.8045 21.4039 67.5661 22.4014 67.0893 23.217C66.6125 24.0326 65.9914 24.6913 65.226 25.1932C64.4606 25.6952 63.6011 26.059 62.6475 26.2849C61.6939 26.5107 60.7402 26.6237 59.7866 26.6237C58.2558 26.6237 56.7564 26.379 55.2883 25.8896C53.8203 25.4003 52.5969 24.6788 51.6182 23.7252L55.0813 20.0739C55.6334 20.6761 56.311 21.178 57.114 21.5796C57.9171 21.9811 58.7703 22.1818 59.6737 22.1818C60.1756 22.1818 60.6712 22.0626 61.1606 21.8242C61.6499 21.5858 61.8946 21.1655 61.8946 20.5632C61.8946 19.986 61.5935 19.5594 60.9912 19.2834C60.3889 19.0073 59.4479 18.7187 58.168 18.4176C57.5155 18.267 56.8631 18.0663 56.2106 17.8153C55.5581 17.5643 54.9747 17.2256 54.4602 16.799C53.9458 16.3723 53.5254 15.8453 53.1992 15.218C52.8729 14.5906 52.7098 13.8377 52.7098 12.9594C52.7098 11.8301 52.9482 10.8702 53.425 10.0797C53.9018 9.28925 54.5167 8.64306 55.2695 8.14116C56.0224 7.63925 56.8568 7.2691 57.7728 7.0307C58.6887 6.7923 59.5984 6.6731 60.5018 6.6731C61.9072 6.6731 63.2811 6.89268 64.6237 7.33184C65.9663 7.77101 67.1018 8.42975 68.0304 9.30808L64.6425 12.8088ZM84.292 14.5028C84.292 13.524 83.9845 12.6834 83.3697 11.9807C82.7549 11.278 81.8326 10.9267 80.603 10.9267C80.0007 10.9267 79.4486 11.0208 78.9467 11.209C78.4448 11.3972 78.0056 11.6545 77.6292 11.9807C77.2528 12.3069 76.9517 12.6896 76.7258 13.1288C76.4999 13.568 76.3745 14.0259 76.3494 14.5028H84.292ZM89.976 16.8742V17.6271C89.976 17.878 89.9634 18.1164 89.9383 18.3423H76.3494C76.3996 18.8693 76.5564 19.3461 76.8199 19.7727C77.0834 20.1993 77.4222 20.5695 77.8363 20.8832C78.2503 21.1969 78.7146 21.4415 79.229 21.6172C79.7435 21.7929 80.2767 21.8807 80.8288 21.8807C81.8075 21.8807 82.6357 21.6988 83.3132 21.3349C83.9908 20.971 84.5429 20.5005 84.9695 19.9233L89.2608 22.6336C88.3824 23.9134 87.2218 24.8984 85.7788 25.5885C84.3359 26.2786 82.6608 26.6237 80.7536 26.6237C79.3482 26.6237 78.0182 26.4041 76.7634 25.9649C75.5087 25.5258 74.4108 24.8858 73.4697 24.0451C72.5286 23.2045 71.7883 22.1693 71.2488 20.9396C70.7093 19.71 70.4395 18.3047 70.4395 16.7237C70.4395 15.1929 70.703 13.8064 71.23 12.5642C71.757 11.3219 72.4722 10.268 73.3756 9.40218C74.279 8.5364 75.3456 7.86511 76.5752 7.3883C77.8049 6.9115 79.1349 6.6731 80.5653 6.6731C81.9456 6.6731 83.2129 6.90522 84.3672 7.36948C85.5216 7.83374 86.5129 8.50503 87.341 9.38336C88.1691 10.2617 88.8153 11.3282 89.2796 12.583C89.7439 13.8377 89.976 15.2681 89.976 16.8742Z" fill="#222222"/>
</svg>
